<?xml version="1.0" encoding="utf-8"?>
<!-- Generator: $$$/GeneralStr/196=Adobe Illustrator 27.6.0, SVG Export Plug-In . SVG Version: 6.00 Build 0)  -->
<svg version="1.1" id="Capa_1" xmlns="http://www.w3.org/2000/svg" xmlns:xlink="http://www.w3.org/1999/xlink" x="0px" y="0px"
	 viewBox="0 0 50 50" style="enable-background:new 0 0 50 50;" xml:space="preserve">
<style type="text/css">
	.st0{clip-path:url(#SVGID_00000158009342255499232770000009646800452080543676_);}
	.st1{fill:#76C6F2;}
	.st2{fill:#A0F26B;}
	.st3{clip-path:url(#SVGID_00000103247630512722187490000006466867844084959633_);}
	.st4{fill:#F8680F;}
</style>
<g>
	<defs>
		<polygon id="SVGID_1_" points="0.01,39.14 41.06,-0.91 -2.55,-0.91 		"/>
	</defs>
	<clipPath id="SVGID_00000034808155652898098700000011568250693239543979_">
		<use xlink:href="#SVGID_1_"  style="overflow:visible;"/>
	</clipPath>
	<g style="clip-path:url(#SVGID_00000034808155652898098700000011568250693239543979_);">
		<rect x="2.84" y="4.13" class="st1" width="32.25" height="31.72"/>
		<rect x="20.36" y="12.1" class="st2" width="16.49" height="14.63"/>
		<g>
			<path d="M1.54,19.75c0-4.51,0.08-9.01-0.03-13.52C1.43,3.11,3.07,2.02,5.73,1.92c0.35-0.01,0.7-0.01,1.06-0.01
				c8.53,0,17.05,0,25.58,0c0.83,0,1.64,0.07,2.44,0.27c1.39,0.35,2.28,1.48,2.3,2.91c0.03,1.69,0.09,3.37-0.01,5.06
				c-0.03,0.47,0.14,0.8,0.55,1.05c1.11,0.7,1.58,1.73,1.58,3.03c-0.01,3.68-0.01,7.37,0,11.05c0,1.36-0.45,2.48-1.65,3.22
				c-0.37,0.23-0.47,0.54-0.47,0.95c0.01,1.64,0.02,3.29,0,4.93c-0.01,1.73-1.07,2.94-2.78,3.17c-0.67,0.09-1.36,0.16-2.03,0.16
				c-8.5,0.01-17,0.01-25.51,0.01c-0.63,0-1.26-0.02-1.9-0.1c-2.33-0.3-3.34-1.42-3.35-3.79C1.53,29.14,1.54,24.44,1.54,19.75
				C1.54,19.75,1.54,19.75,1.54,19.75z M19.4,5.19C19.4,5.19,19.4,5.19,19.4,5.19c-4.58,0-9.16,0-13.74,0c-0.99,0-0.99,0-0.99,0.96
				c-0.01,9.16,0,18.31-0.02,27.47c0,0.65,0.2,0.85,0.85,0.85c3.95-0.03,7.89-0.02,11.84-0.02c5.29,0,10.57-0.02,15.86,0.01
				c0.73,0,0.93-0.23,0.9-0.93c-0.05-1.15-0.01-2.3-0.01-3.45c0-0.96,0-0.96-0.99-0.97c-3.64-0.03-7.28,0.05-10.91-0.1
				c-2.35-0.1-3.59-1.36-3.59-3.7c-0.01-3.62,0-7.23,0-10.85c0-2.43,1.2-3.75,3.63-3.78c3.73-0.05,7.47-0.02,11.21,0.01
				c0.51,0,0.67-0.12,0.66-0.61c-0.02-1.34-0.04-2.68,0.01-4.01c0.02-0.67-0.19-0.89-0.87-0.89C28.61,5.2,24.01,5.19,19.4,5.19z
				 M28.99,13.65c-2.16,0-4.32,0.02-6.48-0.01c-0.7-0.01-0.94,0.19-0.94,0.92c0.03,3.54,0.02,7.08-0.01,10.63
				c-0.01,0.67,0.24,0.83,0.86,0.83C26.65,25.99,30.87,26,35.1,26c1.13,0,1.13,0,1.13-1.11c0-3.42-0.01-6.85,0.02-10.27
				c0.01-0.96,0.04-0.96-0.92-0.96C33.21,13.65,31.1,13.65,28.99,13.65z"/>
			<path d="M27.85,16.68c1.65,0.01,3.19,1.53,3.18,3.15c-0.02,1.62-1.57,3.12-3.22,3.11c-1.62-0.01-3.15-1.57-3.14-3.2
				C24.68,18.16,26.21,16.68,27.85,16.68z"/>
		</g>
	</g>
</g>
<g>
	<defs>
		<polygon id="SVGID_00000054950112868870345330000016856804404381829027_" points="49.66,9.61 8.61,49.66 49.66,49.66 		"/>
	</defs>
	<clipPath id="SVGID_00000091004470073648374640000017439597965375210891_">
		<use xlink:href="#SVGID_00000054950112868870345330000016856804404381829027_"  style="overflow:visible;"/>
	</clipPath>
	<g style="clip-path:url(#SVGID_00000091004470073648374640000017439597965375210891_);">
		<rect x="11.44" y="14.65" class="st1" width="32.25" height="31.72"/>
		<rect x="28.96" y="22.63" class="st2" width="16.49" height="14.63"/>
		<g>
			<path d="M10.14,30.27c0-4.51,0.08-9.01-0.03-13.52c-0.08-3.12,1.56-4.21,4.22-4.31c0.35-0.01,0.7-0.01,1.06-0.01
				c8.53,0,17.05,0,25.58,0c0.83,0,1.64,0.07,2.44,0.27c1.39,0.35,2.28,1.48,2.3,2.91c0.03,1.69,0.09,3.37-0.01,5.06
				c-0.03,0.47,0.14,0.8,0.55,1.05c1.11,0.7,1.58,1.73,1.58,3.03c-0.01,3.68-0.01,7.37,0,11.05c0,1.36-0.45,2.48-1.65,3.22
				c-0.37,0.23-0.47,0.54-0.47,0.95c0.01,1.64,0.02,3.29,0,4.93c-0.01,1.73-1.07,2.94-2.78,3.17c-0.67,0.09-1.36,0.16-2.03,0.16
				c-8.5,0.01-17,0.01-25.51,0.01c-0.63,0-1.26-0.02-1.9-0.1c-2.33-0.3-3.34-1.42-3.35-3.79C10.13,39.66,10.14,34.96,10.14,30.27
				C10.14,30.27,10.14,30.27,10.14,30.27z M28,15.71C28,15.71,28,15.71,28,15.71c-4.58,0-9.16,0-13.74,0c-0.99,0-0.99,0-0.99,0.96
				c-0.01,9.16,0,18.31-0.02,27.47c0,0.65,0.2,0.85,0.85,0.85c3.95-0.03,7.89-0.02,11.84-0.02c5.29,0,10.57-0.02,15.86,0.01
				c0.73,0,0.93-0.23,0.9-0.93c-0.05-1.15-0.01-2.3-0.01-3.45c0-0.96,0-0.96-0.99-0.97c-3.64-0.03-7.28,0.05-10.91-0.1
				c-2.35-0.1-3.59-1.36-3.59-3.7c-0.01-3.62,0-7.23,0-10.85c0-2.43,1.2-3.75,3.63-3.78c3.73-0.05,7.47-0.02,11.21,0.01
				c0.51,0,0.67-0.12,0.66-0.61c-0.02-1.34-0.04-2.68,0.01-4.01c0.02-0.67-0.19-0.89-0.87-0.89C37.21,15.72,32.61,15.71,28,15.71z
				 M37.59,24.17c-2.16,0-4.32,0.02-6.48-0.01c-0.7-0.01-0.94,0.19-0.94,0.92c0.03,3.54,0.02,7.08-0.01,10.63
				c-0.01,0.67,0.24,0.83,0.86,0.83c4.23-0.02,8.45-0.01,12.68-0.01c1.13,0,1.13,0,1.13-1.11c0-3.42-0.01-6.85,0.02-10.27
				c0.01-0.96,0.04-0.96-0.92-0.96C41.81,24.17,39.7,24.17,37.59,24.17z"/>
			<path d="M36.45,27.2c1.65,0.01,3.19,1.53,3.18,3.15c-0.02,1.62-1.57,3.12-3.22,3.11c-1.62-0.01-3.15-1.57-3.14-3.2
				C33.28,28.68,34.81,27.2,36.45,27.2z"/>
		</g>
	</g>
</g>
<g>
	<path class="st4" d="M5.12,49.04l-3.54-3.54l6.36-6.36l3.54,3.54L5.12,49.04z M17.85,36.31l-3.54-3.54l6.36-6.36l3.54,3.54
		L17.85,36.31z M30.57,23.59l-3.54-3.54l6.36-6.36l3.54,3.54L30.57,23.59z M43.3,10.86l-3.54-3.54l6.36-6.36l3.54,3.54L43.3,10.86z"
		/>
</g>
</svg>
